<?xml version="1.0" encoding="UTF-8" standalone="no"?>
<!-- Created with Inkscape (http://www.inkscape.org/) -->

<svg
   xmlns:dc="http://purl.org/dc/elements/1.1/"
   xmlns:cc="http://creativecommons.org/ns#"
   xmlns:rdf="http://www.w3.org/1999/02/22-rdf-syntax-ns#"
   xmlns:svg="http://www.w3.org/2000/svg"
   xmlns="http://www.w3.org/2000/svg"
   xmlns:xlink="http://www.w3.org/1999/xlink"
   xmlns:sodipodi="http://sodipodi.sourceforge.net/DTD/sodipodi-0.dtd"
   xmlns:inkscape="http://www.inkscape.org/namespaces/inkscape"
   width="600"
   height="600"
   id="svg4882"
   version="1.1"
   inkscape:version="0.48.5 r10040"
   sodipodi:docname="Ole the Stanky Skunk.svg">
  <title
     id="title5794">Ole the Stanky Skunk : Animation</title>
  <defs
     id="defs4884" />
  <sodipodi:namedview
     id="base"
     pagecolor="#ffffff"
     bordercolor="#666666"
     borderopacity="1.0"
     inkscape:pageopacity="0.0"
     inkscape:pageshadow="2"
     inkscape:zoom="0.60336"
     inkscape:cx="227.69"
     inkscape:cy="311.86"
     inkscape:current-layer="layer1"
     inkscape:document-units="px"
     showgrid="false"
     inkscape:window-width="1366"
     inkscape:window-height="705"
     inkscape:window-x="-8"
     inkscape:window-y="-8"
     inkscape:window-maximized="1" />
  <metadata
     id="metadata4887">
    <rdf:RDF>
      <cc:Work
         rdf:about="">
        <dc:format>image/svg+xml</dc:format>
        <dc:type
           rdf:resource="http://purl.org/dc/dcmitype/StillImage" />
        <dc:title>Ole the Stanky Skunk : Animation</dc:title>
        <cc:license
           rdf:resource="" />
        <dc:description>An animation of Esteban de Montenegro A.K.A. &quot;Ole the Stanky Skunk&quot;.</dc:description>
        <dc:subject>
          <rdf:Bag>
            <rdf:li>Animation</rdf:li>
            <rdf:li>SMIL</rdf:li>
            <rdf:li>Skunk</rdf:li>
          </rdf:Bag>
        </dc:subject>
        <dc:creator>
          <cc:Agent>
            <dc:title>Aukipa</dc:title>
          </cc:Agent>
        </dc:creator>
        <dc:publisher>
          <cc:Agent>
            <dc:title>http://www.portaloha.com/creative-dept/</dc:title>
          </cc:Agent>
        </dc:publisher>
      </cc:Work>
    </rdf:RDF>
  </metadata>
  <g
     id="layer1"
     inkscape:label="Layer 1"
     inkscape:groupmode="layer">
    <rect
       style="color:#000000;fill:#ffffff;fill-opacity:1;fill-rule:nonzero;stroke:none;stroke-width:1;marker:none;visibility:visible;display:inline;overflow:visible;enable-background:accumulate"
       id="rect3038"
       width="664.61"
       height="648.04"
       x="-24.861"
       y="-24.833" />
    <g
       id="Esteban de Montenegro"
       transform="matrix(1.5,0,0,1.5,-472.44,-330.91)">
      <path
         sodipodi:nodetypes="ccccccccc"
         inkscape:connector-curvature="0"
         id="path9603"
         d="m 516.72,420.85 -1.02,4.26 c 1.2,8.19 2.47,15.38 3,32.26 -5.86,12.64 -9.91,14.41 -14.49,19.35 -1.76,-3.5 -0.69,-2.45 -1.4,-6.42 l 9.32,-12.71 -12.38,-23.88 8.69,-14.54 1.98,-3.31"
         style="color:#000000;fill:#333333;fill-opacity:1;fill-rule:nonzero;stroke:#000000;stroke-width:1;stroke-linecap:butt;stroke-linejoin:round;stroke-miterlimit:4;stroke-opacity:1;stroke-dasharray:none;stroke-dashoffset:4.6;marker:none;visibility:visible;display:inline;overflow:visible;enable-background:accumulate" />
      <path
         sodipodi:nodetypes="ccac"
         inkscape:connector-curvature="0"
         id="path9779"
         d="m 480.74,541.6 c 7.13,-2.42 4.14,0.26 44.82,-2.85 4.81,-0.76 14,0.51 14.8,5.75 0.95,6.17 -8.39,15.28 -14.64,11.7"
         style="color:#000000;fill:#333333;fill-opacity:1;fill-rule:nonzero;stroke:#000000;stroke-width:1;stroke-linecap:butt;stroke-linejoin:round;stroke-miterlimit:4;stroke-opacity:1;stroke-dasharray:none;stroke-dashoffset:4.6;marker:none;visibility:visible;display:inline;overflow:visible;enable-background:accumulate" />
      <path
         sodipodi:nodetypes="ccccccccc"
         inkscape:connector-curvature="0"
         id="path9792"
         d="m 417.19,370.75 -31.48,44.55 c -2.47,3.91 -4.8,7.9 -3.87,13.85 l 6.36,6.82 c 9.4,8.4 16.56,15.67 24.42,23.3 l 5.47,-10.13 -16.16,-15.11 -0.17,-9.47 c 4.01,-5.48 42.8,-48.65 42.8,-48.65"
         style="color:#000000;fill:#333333;fill-opacity:1;fill-rule:nonzero;stroke:#0e0a0a;stroke-width:1;stroke-linecap:butt;stroke-linejoin:round;stroke-miterlimit:4;stroke-opacity:1;stroke-dasharray:none;stroke-dashoffset:4.6;marker:none;visibility:visible;display:inline;overflow:visible;enable-background:accumulate" />
      <g
         transform="translate(476.09,441.04)"
         id="TailScale">
        <g
           id="TailRotate">
          <animateTransform
             type="rotate"
             fill="freeze"
             dur="8000ms"
             begin="0ms"
             additive="sum"
             attributeName="transform"
             id="animateTransform10132"
             repeatCount="indefinite"
             values="0 0 0;-30 0 0;0 0 0" />
          <g
             id="g10025">
            <path
               style="color:#000000;fill:#333333;fill-opacity:1;fill-rule:nonzero;stroke:#000000;stroke-width:1;stroke-linecap:butt;stroke-linejoin:round;stroke-miterlimit:4;stroke-opacity:1;stroke-dasharray:none;stroke-dashoffset:4.6;marker:none;visibility:visible;display:inline;overflow:visible;enable-background:accumulate"
               d="M -11.977,7.6446 C 8.4491,-29.239 23.357,-60.871 49.982,-87.944 c 14.241,-14.476 31.351,-27.416 50.568,-33.986 21.23,-7.26 43.7,-9.33 67.16,-4.52 36.43,3.19 48.46,30.774 36.61,53.915 -9.78,19.113 -35.86,35.194 -77.92,31.989 4.82,-32.731 -11.57,-35.959 -29.412,-33.029 -11.954,1.963 -29.749,12.084 -38.537,20.605 -24.826,24.35 -36.006,41.449 -60.1018,71.091"
               id="Tail1"
               inkscape:connector-curvature="0"
               sodipodi:nodetypes="csscscscc" />
            <path
               style="color:#000000;fill:#f9f9f9;fill-opacity:1;fill-rule:nonzero;stroke:#0e0a0a;stroke-width:1;stroke-linecap:butt;stroke-linejoin:round;stroke-miterlimit:4;stroke-opacity:1;stroke-dasharray:none;stroke-dashoffset:4.6;marker:none;visibility:visible;display:inline;overflow:visible;enable-background:accumulate"
               d="M -5.8548,3.227 C 43.473,-71.152 57.46,-96.518 100.58,-108.9 c 18.93,-7.57 80.48,-1.97 90.88,11.363 16.23,21.868 -17.98,50.165 -36.15,43.372 33.45,-33.129 -22.12,-45.554 -51.63,-36.143 C 36.073,-73.845 40.413,-43.642 -2.0267,12.218"
               id="path9794"
               inkscape:connector-curvature="0"
               sodipodi:nodetypes="cccccc" />
          </g>
        </g>
      </g>
      <path
         sodipodi:nodetypes="ccc"
         inkscape:connector-curvature="0"
         id="path10139"
         d="m 438.12,545.97 c -16.32,-4.75 -51.55,-3.27 -58.42,1.46 -5.7,9.37 -2.03,14.91 5.12,16.79"
         style="color:#000000;fill:#333333;fill-opacity:1;fill-rule:nonzero;stroke:#130b08;stroke-width:1;stroke-opacity:1;marker:none;visibility:visible;display:inline;overflow:visible;enable-background:accumulate" />
      <path
         sodipodi:nodetypes="cccccccccccccccccccccccccc"
         inkscape:connector-curvature="0"
         id="path9149"
         d="m 438.75,556.06 -32.46,18 c -20.12,13.33 -31.63,-16.2 -19.62,-18.27 l 46.25,-11.04 -3.01,-29.43 -7,-29.89 c -9.52,-13.08 -11.38,-28.58 -9.01,-41.69 0.39,-10.72 10.29,-19.86 22.26,-28.65 l -18.97,-44.34 29.43,-49.57 31.55,36.43 c 10.46,14.55 22.58,43.62 13.75,65.88 6,18.43 16.08,11.3 9.95,50.53 l -18.59,30.98 1.19,35.7 25.18,5.11 c 3.67,0.2 9.38,1.51 13.05,1.71 17.56,5.3 9.18,27.96 -11.39,17.28 l -46.46,-18.35 -0.15,-37.32 -4.24,-20.41 -15.01,5.17 3.95,18.07 -1.9,32.07 2.01,6.13 z"
         style="color:#000000;fill:#333333;fill-opacity:1;fill-rule:nonzero;stroke:#000000;stroke-width:1;stroke-linecap:butt;stroke-linejoin:round;stroke-miterlimit:4;stroke-opacity:1;stroke-dasharray:none;stroke-dashoffset:4.6;marker:none;visibility:visible;display:inline;overflow:visible;enable-background:accumulate" />
      <path
         sodipodi:nodetypes="ccscccccsc"
         inkscape:connector-curvature="0"
         id="rect10136"
         d="m 411.63,439.93 c 33.39,22.31 56.33,16.5 91.64,2.19 2.69,16.27 7.51,36.37 -2.41,46.98 -3.75,4.01 -11.21,13.1 -12.92,29.69 l -24.1,0 -10.59,-25.56 3.29,26.29 -31.4,4.38 c -2.39,-2.93 -14.78,-34.84 -17.91,-51.07 -3.13,-16.22 1.53,-25.52 4.4,-32.9 z"
         style="color:#000000;fill:#c87137;fill-opacity:1;stroke:none;stroke-width:1;marker:none;visibility:visible;display:inline;overflow:visible;enable-background:accumulate" />
      <path
         sodipodi:nodetypes="ccccc"
         inkscape:connector-curvature="0"
         id="path10145"
         d="m 412.93,441.91 c 30.6,17.72 57.52,13.65 89.08,0.37 l 2.56,7.3 c -49.22,16.95 -72.32,6.84 -93.47,0.36 z"
         style="color:#000000;fill:none;stroke:#130b08;stroke-width:1;stroke-linecap:butt;stroke-linejoin:round;stroke-miterlimit:4;stroke-opacity:1;stroke-dasharray:none;stroke-dashoffset:4.6;marker:none;visibility:visible;display:inline;overflow:visible;enable-background:accumulate" />
      <path
         sodipodi:nodetypes="cssccccccccccccc"
         inkscape:connector-curvature="0"
         id="path9605"
         d="m 466.49,381.55 c 31.12,26.98 49.78,24.66 49.1,27.11 -1.37,4.92 -8.98,12.36 -9.53,12.43 -4.58,0.59 -8.84,4.14 -12.98,8.76 l -0.1,7.69 c -4.3,1.23 -4.06,3.64 -7.8,5.99 1.58,1.94 -0.27,5.83 5.61,5.31 4.03,-1.92 4.21,-4 8.28,-5.82 3.29,2.54 4.06,1.78 8.33,9.56 l -7.66,9.83 c -4.75,8.89 3.82,5.61 3.96,5.5 4.27,-4.96 6.89,-4.36 13.02,-15.52 2.03,-9.02 3.36,-17.85 0.59,-25.5 l 13.99,-14.05 c 3.47,-2.15 1.38,-3.62 -0.56,-5.1 L 474.41,362.2"
         style="color:#000000;fill:#333333;fill-opacity:1;fill-rule:nonzero;stroke:#000000;stroke-width:1;stroke-linecap:butt;stroke-linejoin:round;stroke-miterlimit:4;stroke-opacity:1;stroke-dasharray:none;stroke-dashoffset:4.6;marker:none;visibility:visible;display:inline;overflow:visible;enable-background:accumulate" />
      <path
         sodipodi:nodetypes="cc"
         inkscape:connector-curvature="0"
         id="path9796"
         d="m 436.63,419.15 c 9.63,-13.08 31.88,-12.31 47.03,-0.61"
         style="color:#000000;fill:none;stroke:#0e0a0a;stroke-width:1;stroke-linecap:butt;stroke-linejoin:round;stroke-miterlimit:4;stroke-opacity:1;stroke-dasharray:none;stroke-dashoffset:4.6;marker:none;visibility:visible;display:inline;overflow:visible;enable-background:accumulate" />
      <g
         transform="matrix(0.98833,0.15232,-0.15232,0.98833,221.04,74.835)"
         id="Cat1sHead"
         style="display:inline">
        <animateTransform
           values="0 0;0 15;0 15;0 0"
           repeatCount="1"
           id="animateShunkHeadMove"
           attributeName="transform"
           additive="sum"
           begin="3000ms;animateShunkHeadMove.end+5000ms"
           dur="4000ms"
           fill="freeze"
           type="translate" />
        <path
           sodipodi:nodetypes="ccsccsc"
           id="path4446-2"
           d="m 293.69,200.74 c 7.92,3.35 3.88,13.98 -2.86,43.12 -6.66,18.17 2.37,33.25 -35.72,39.68 -31.8,5.37 -41.88,-13.95 -47.75,-21.63 -21.27,-29.46 -20.04,-22.75 -19.61,-38.11 2.12,-33.03 22.19,-45.04 45.34,-50.73 30.41,-7.47 39.85,0.71 60.6,27.67 z"
           style="color:#000000;fill:#333333;fill-opacity:1;fill-rule:nonzero;stroke:#000000;stroke-width:1;stroke-linecap:butt;stroke-linejoin:round;stroke-miterlimit:4;stroke-opacity:1;stroke-dasharray:none;stroke-dashoffset:0;marker:none;visibility:visible;display:inline;overflow:visible;enable-background:accumulate"
           inkscape:connector-curvature="0" />
        <path
           sodipodi:nodetypes="sssssssss"
           inkscape:connector-curvature="0"
           id="path4482-1"
           d="m 250.82,229.68 c 0.76,8.4 5.48,15.43 8.78,20.89 3.06,5.08 5.17,8.75 -5.12,11.95 -9.95,3.09 -9.63,-1.06 -9.23,-7.63 0.42,-6.94 1.16,-16.61 -1.15,-24.64 l -9.62,-33.39 c -3.89,-13.48 -10.59,-21.23 1.62,-24.44 13.63,-3.6 10.12,6.94 11.44,21.35 z"
           style="color:#000000;fill:#f9f9f9;fill-opacity:1;fill-rule:nonzero;stroke:#000000;stroke-width:0.5;stroke-linecap:butt;stroke-linejoin:round;stroke-miterlimit:4;stroke-opacity:1;stroke-dashoffset:0;marker:none;visibility:visible;display:inline;overflow:visible;enable-background:accumulate" />
        <path
           sodipodi:nodetypes="ccsc"
           inkscape:connector-curvature="0"
           id="path4452-1"
           d="m 188.41,224.6 c -8.42,-20.21 -16.15,-18.36 -9.9,-40.45 5.31,-3.59 8.6,-8.2 19.98,-5.44 7.02,1.7 14.06,4.69 21.38,3.52"
           style="color:#000000;fill:#333333;fill-opacity:1;fill-rule:nonzero;stroke:#000000;stroke-width:1;stroke-linecap:butt;stroke-linejoin:round;stroke-miterlimit:4;stroke-opacity:1;stroke-dasharray:none;stroke-dashoffset:0;marker:none;visibility:visible;display:inline;overflow:visible;enable-background:accumulate" />
        <path
           sodipodi:nodetypes="cccc"
           inkscape:connector-curvature="0"
           id="path4454-2"
           d="m 250.07,173.44 c 17,-5.13 13.83,-8.85 18.67,-12.95 7.85,-7.34 10.28,-6.18 15.58,-2.5 12.23,17.44 8,27.12 8.8,41.8"
           style="color:#000000;fill:#333333;fill-opacity:1;fill-rule:nonzero;stroke:#000000;stroke-width:1;stroke-linecap:butt;stroke-linejoin:round;stroke-miterlimit:4;stroke-opacity:1;stroke-dasharray:none;stroke-dashoffset:0;marker:none;visibility:visible;display:inline;overflow:visible;enable-background:accumulate" />
        <path
           sodipodi:nodetypes="ccc"
           inkscape:connector-curvature="0"
           id="path4466-9"
           d="m 189.26,211.91 c -10.5,-12.08 -4.79,-15.21 -7.76,-22.5 6.08,-0.1 5.74,2.15 21.2,2.35"
           style="color:#000000;fill:#333333;fill-opacity:1;fill-rule:nonzero;stroke:#000000;stroke-width:0.5;stroke-linecap:butt;stroke-linejoin:round;stroke-miterlimit:4;stroke-opacity:1;stroke-dasharray:none;stroke-dashoffset:0;marker:none;visibility:visible;display:inline;overflow:visible;enable-background:accumulate" />
        <path
           sodipodi:nodetypes="ccc"
           inkscape:connector-curvature="0"
           id="path4468-4"
           d="m 263.35,173.49 c 8.81,-9.15 10.94,-0.56 19.74,-9.71 -1.2,13.91 4.27,10.07 3.07,23.98"
           style="color:#000000;fill:#333333;fill-opacity:1;fill-rule:nonzero;stroke:#000000;stroke-width:0.5;stroke-linecap:butt;stroke-linejoin:round;stroke-miterlimit:4;stroke-opacity:1;stroke-dasharray:none;stroke-dashoffset:0;marker:none;visibility:visible;display:inline;overflow:visible;enable-background:accumulate" />
        <path
           sodipodi:nodetypes="csc"
           inkscape:connector-curvature="0"
           id="path4470-6"
           d="m 240.59,274.38 c 4.35,3.4 10.65,0 14.15,-0.82 3.49,-0.8 13.33,-0.38 15.98,-4.79"
           style="color:#000000;fill:none;stroke:#000000;stroke-width:0.5;stroke-linecap:butt;stroke-linejoin:round;stroke-miterlimit:4;stroke-opacity:1;stroke-dasharray:none;stroke-dashoffset:0;marker:none;visibility:visible;display:inline;overflow:visible;enable-background:accumulate" />
        <path
           sodipodi:nodetypes="cc"
           inkscape:connector-curvature="0"
           id="path4486-2"
           d="m 233.55,267.75 -27.31,6.71"
           style="color:#000000;fill:#999999;fill-opacity:1;fill-rule:nonzero;stroke:#000000;stroke-width:0.5;stroke-linecap:butt;stroke-linejoin:round;stroke-miterlimit:4;stroke-opacity:1;stroke-dasharray:none;stroke-dashoffset:0;marker:none;visibility:visible;display:inline;overflow:visible;enable-background:accumulate" />
        <path
           sodipodi:nodetypes="cc"
           inkscape:connector-curvature="0"
           id="path4488-4"
           d="m 234.78,271.4 -25.25,9.53"
           style="color:#000000;fill:#999999;fill-opacity:1;fill-rule:nonzero;stroke:#000000;stroke-width:0.5;stroke-linecap:butt;stroke-linejoin:round;stroke-miterlimit:4;stroke-opacity:1;stroke-dasharray:none;stroke-dashoffset:0;marker:none;visibility:visible;display:inline;overflow:visible;enable-background:accumulate" />
        <path
           sodipodi:nodetypes="cc"
           inkscape:connector-curvature="0"
           id="path4490-5"
           d="M 239.02,273.37 221.4,287.01"
           style="color:#000000;fill:#999999;fill-opacity:1;fill-rule:nonzero;stroke:#000000;stroke-width:0.5;stroke-linecap:butt;stroke-linejoin:round;stroke-miterlimit:4;stroke-opacity:1;stroke-dasharray:none;stroke-dashoffset:0;marker:none;visibility:visible;display:inline;overflow:visible;enable-background:accumulate" />
        <path
           sodipodi:nodetypes="cc"
           inkscape:connector-curvature="0"
           id="path4492-8"
           d="m 272.1,259.31 29.16,-9.07"
           style="color:#000000;fill:#999999;fill-opacity:1;fill-rule:nonzero;stroke:#000000;stroke-width:0.5;stroke-linecap:butt;stroke-linejoin:round;stroke-miterlimit:4;stroke-opacity:1;stroke-dasharray:none;stroke-dashoffset:0;marker:none;visibility:visible;display:inline;overflow:visible;enable-background:accumulate" />
        <path
           sodipodi:nodetypes="cc"
           inkscape:connector-curvature="0"
           id="path4494-8"
           d="m 271.45,263.45 23.57,-2.51"
           style="color:#000000;fill:#999999;fill-opacity:1;fill-rule:nonzero;stroke:#000000;stroke-width:0.5;stroke-linecap:butt;stroke-linejoin:round;stroke-miterlimit:4;stroke-opacity:1;stroke-dasharray:none;stroke-dashoffset:0;marker:none;visibility:visible;display:inline;overflow:visible;enable-background:accumulate" />
        <path
           sodipodi:nodetypes="cc"
           inkscape:connector-curvature="0"
           id="path4496-1"
           d="m 269.32,266.65 23.38,3.48"
           style="color:#000000;fill:#999999;fill-opacity:1;fill-rule:nonzero;stroke:#000000;stroke-width:0.5;stroke-linecap:butt;stroke-linejoin:round;stroke-miterlimit:4;stroke-opacity:1;stroke-dasharray:none;stroke-dashoffset:0;marker:none;visibility:visible;display:inline;overflow:visible;enable-background:accumulate" />
        <path
           sodipodi:nodetypes="cc"
           inkscape:connector-curvature="0"
           id="path9267"
           d="m 262.77,256.87 -19.34,3.6"
           style="color:#000000;fill:#996d54;fill-opacity:1;fill-rule:nonzero;stroke:#000000;stroke-width:0.5;stroke-opacity:1;marker:none;visibility:visible;display:inline;overflow:visible;enable-background:accumulate" />
        <path
           style="color:#000000;fill:#1a1a1a;fill-opacity:1;fill-rule:nonzero;stroke:#000000;stroke-width:0.5;stroke-linecap:butt;stroke-linejoin:round;stroke-miterlimit:4;stroke-opacity:1;stroke-dasharray:none;stroke-dashoffset:0;marker:none;visibility:visible;display:inline;overflow:visible;enable-background:accumulate"
           d="m 243.74,257.71 c 1.15,0.89 1.19,4.4 2.24,5.02 6.3,3.72 11.04,2.52 15.29,-3.45 0.44,-0.62 0.26,-5.25 0.69,-5.97 -7.1,-2.15 -13.26,-1 -18.22,4.4 z"
           id="path8286"
           inkscape:connector-curvature="0"
           sodipodi:nodetypes="csscc" />
        <g
           transform="translate(-0.91392,-5.93)"
           id="g9271">
          <animateTransform
             type="translate"
             fill="freeze"
             dur="4000ms"
             begin="animateShunkHeadMove.begin"
             additive="sum"
             attributeName="transform"
             id="animateTransform9317"
             repeatCount="1"
             values="0 0;0 3;-2 5;0 0" />
          <path
             style="color:#000000;fill:#1a1a1a;fill-opacity:1;fill-rule:nonzero;stroke:none;stroke-width:0.5;marker:none;visibility:visible;display:inline;overflow:visible;enable-background:accumulate"
             d="m 256.02,232.24 c -0.65,5.81 2.24,11.89 6.13,14.08 7.86,5 13.44,2.08 20.7,-1.72 8.08,-4.25 9.59,-18.67 10.5,-18.59"
             id="path4458-7"
             inkscape:connector-curvature="0"
             sodipodi:nodetypes="ccsc" />
          <path
             inkscape:connector-curvature="0"
             transform="translate(-751.71,-17.538)"
             style="color:#000000;fill:#000000;fill-opacity:1;fill-rule:nonzero;stroke:#f4e9e9;stroke-width:0.5;stroke-linecap:butt;stroke-linejoin:round;stroke-miterlimit:4;stroke-opacity:1;stroke-dashoffset:0;marker:none;visibility:visible;display:inline;overflow:visible;enable-background:accumulate"
             d="m 1036.7,253.97 c 0,4.64 -4,8.4 -8.9,8.4 -4.8,0 -8.8,-3.76 -8.8,-8.4 0,-4.64 4,-8.4 8.8,-8.4 4.9,0 8.9,3.76 8.9,8.4 z"
             id="path4476-3"
             sodipodi:nodetypes="sssss" />
          <path
             sodipodi:nodetypes="ccc"
             transform="matrix(0.98833,-0.15232,0.15232,0.98833,-189.72,23.526)"
             inkscape:connector-curvature="0"
             id="path8290"
             d="m 426.77,275.48 c -2.98,0.16 -4.07,3.46 -3.11,7.49 3.76,0.51 5.94,-6.66 3.11,-7.49 z"
             style="color:#000000;fill:#f2f2f2;fill-opacity:1;fill-rule:nonzero;stroke:#000000;stroke-width:0.5;stroke-linecap:butt;stroke-linejoin:round;stroke-miterlimit:4;stroke-opacity:1;stroke-dasharray:none;stroke-dashoffset:0;marker:none;visibility:visible;display:inline;overflow:visible;enable-background:accumulate" />
          <path
             style="color:#000000;fill:#333333;fill-opacity:1;fill-rule:nonzero;stroke:#0e0a0a;stroke-width:0.5;stroke-opacity:1;marker:none;visibility:visible;display:inline;overflow:visible;enable-background:accumulate"
             d="m 294.31,226.68 c -10.44,-5.86 -28.73,-6.69 -38.64,6.14 l 1.46,5.72 c 6.45,-4.26 18.95,-9.93 37.18,-11.86 z"
             id="path4464-4"
             inkscape:connector-curvature="0"
             sodipodi:nodetypes="cccc" />
        </g>
        <use
           height="600"
           width="1200"
           transform="matrix(-0.9536,0.30109,0.30109,0.9536,417.01,-63.369)"
           id="use9278"
           xlink:href="#g9271"
           y="0"
           x="0" />
      </g>
      <path
         sodipodi:nodetypes="cccccccccccccc"
         inkscape:connector-curvature="0"
         id="path9798"
         d="m 397.23,443.01 c 0.31,3.62 0.61,7.24 2.55,11.68 5.72,5.51 6.72,9.83 22.64,17.89 1.57,-1.38 4.64,-2.11 1.1,-6.94 l -16.8,-14.6 14.64,12.68 c 1.89,-1.5 6.63,-1.91 1.81,-5.97 l -12.18,-11.49 c -1.21,-3.95 1.58,-7.27 5.22,-9.82 l 6.58,0 c 3.65,-2.31 2.96,-4.63 2.55,-6.94 -6.32,-4.38 -5.48,2.43 -8.76,1.09 l -4.02,-1.46 -10.59,1.46"
         style="color:#000000;fill:#333333;fill-opacity:1;fill-rule:nonzero;stroke:#0e0a0a;stroke-width:1;stroke-linecap:butt;stroke-linejoin:round;stroke-miterlimit:4;stroke-opacity:1;stroke-dasharray:none;stroke-dashoffset:4.6;marker:none;visibility:visible;display:inline;overflow:visible;enable-background:accumulate" />
      <path
         d="m 461.48,445.02 c 0,3.53 -2.29,6.39 -5.11,6.39 -2.82,0 -5.11,-2.86 -5.11,-6.39 0,-3.53 2.29,-6.39 5.11,-6.39 2.82,0 5.11,2.86 5.11,6.39 z"
         sodipodi:ry="6.3892"
         sodipodi:rx="5.1114"
         sodipodi:cy="445.02"
         sodipodi:cx="456.37"
         id="path9800"
         style="color:#000000;fill:#333333;fill-opacity:1;fill-rule:nonzero;stroke:#0e0a0a;stroke-width:1;stroke-linecap:butt;stroke-linejoin:round;stroke-miterlimit:4;stroke-opacity:1;stroke-dasharray:none;stroke-dashoffset:4.6;marker:none;visibility:visible;display:inline;overflow:visible;enable-background:accumulate"
         sodipodi:type="arc" />
      <path
         sodipodi:nodetypes="cccc"
         inkscape:connector-curvature="0"
         id="path10141"
         d="m 427.17,553.27 c -11.81,2.8 -28.58,7.2 -30.67,13.14 -2.28,7.29 -0.78,20.24 16.79,12.41 l 27.75,-26.28"
         style="color:#000000;fill:#333333;fill-opacity:1;fill-rule:nonzero;stroke:#130b08;stroke-width:1;stroke-linecap:butt;stroke-linejoin:round;stroke-miterlimit:4;stroke-opacity:1;stroke-dasharray:none;stroke-dashoffset:4.6;marker:none;visibility:visible;display:inline;overflow:visible;enable-background:accumulate" />
      <path
         sodipodi:nodetypes="ccccc"
         inkscape:connector-curvature="0"
         id="path10143"
         d="m 451.26,457.61 c -6.63,8.52 -2.5,27.26 -0.36,35.78 l 4.01,-1.09 c -1.83,-8.34 -5.09,-21.43 0,-33.23 z"
         style="color:#000000;fill:none;stroke:#130b08;stroke-width:1;stroke-linecap:butt;stroke-linejoin:round;stroke-miterlimit:4;stroke-opacity:1;stroke-dasharray:none;stroke-dashoffset:4.6;marker:none;visibility:visible;display:inline;overflow:visible;enable-background:accumulate" />
      <path
         inkscape:connector-curvature="0"
         id="path10147"
         d="m 425.34,524.06 -2.19,-4.75 32.13,-4.74 4.38,5.47 z"
         style="color:#000000;fill:none;stroke:#130b08;stroke-width:1;stroke-linecap:butt;stroke-linejoin:round;stroke-miterlimit:4;stroke-opacity:1;stroke-dasharray:none;stroke-dashoffset:4.6;marker:none;visibility:visible;display:inline;overflow:visible;enable-background:accumulate" />
      <path
         inkscape:connector-curvature="0"
         id="path10149"
         d="m 462.95,514.2 25.92,-0.36 0.36,6.57 -25.19,-0.73 -1.09,-7.3 z"
         style="color:#000000;fill:none;stroke:#130b08;stroke-width:1;stroke-linecap:butt;stroke-linejoin:round;stroke-miterlimit:4;stroke-opacity:1;stroke-dasharray:none;stroke-dashoffset:4.6;marker:none;visibility:visible;display:inline;overflow:visible;enable-background:accumulate" />
      <path
         sodipodi:nodetypes="cccc"
         inkscape:connector-curvature="0"
         id="path10151"
         d="m 479.38,545.97 34.32,8.39 c 7.45,1.42 10.92,20.67 -4.75,14.61 l -30.3,-17.89"
         style="color:#000000;fill:#333333;fill-opacity:1;stroke:#130b08;stroke-width:1;stroke-linecap:butt;stroke-linejoin:round;stroke-miterlimit:4;stroke-opacity:1;stroke-dasharray:none;stroke-dashoffset:4.6;marker:none;visibility:visible;display:inline;overflow:visible;enable-background:accumulate" />
    </g>
  </g>
</svg>
